<svg width="52" height="45" viewBox="0 0 52 45" fill="none" xmlns="http://www.w3.org/2000/svg">
<rect width="51.6892" height="45" rx="3" fill="#0429E2"/>
<path d="M45.7817 22.5278C45.7817 20.6076 45.4033 18.7062 44.6685 16.9321C43.9336 15.158 42.8564 13.5459 41.4985 12.188C40.1407 10.8301 38.5285 9.75294 36.7544 9.01807C34.9788 8.28264 32.4669 7.79346 30.5483 7.79346H29.8599L30.0728 8.44873L30.6587 10.2495V34.7886L30.0845 36.2144L29.8081 36.9009H30.5483C32.3979 36.9009 34.9382 36.7898 36.7544 36.0376C38.5285 35.3028 40.1407 34.2255 41.4985 32.8677C42.8564 31.5098 43.9336 29.8977 44.6685 28.1235C45.4033 26.3495 45.7817 24.4481 45.7817 22.5278Z" stroke="white"/>
<path d="M6.79718 22.167C6.79718 24.0872 7.17566 25.9886 7.91046 27.7627C8.64533 29.5368 9.72252 31.149 11.0804 32.5068C12.4382 33.8647 14.0504 34.9419 15.8245 35.6768C17.6001 36.4122 20.112 36.9014 22.0306 36.9014H22.7191L22.5062 36.2461L21.9202 34.4453V9.90625L22.4944 8.48047L22.7708 7.79395H22.0306C20.181 7.79395 17.6408 7.90504 15.8245 8.65723C14.0505 9.39207 12.4382 10.4694 11.0804 11.8271C9.72252 13.185 8.64533 14.7972 7.91046 16.5713C7.17562 18.3454 6.7972 20.2467 6.79718 22.167Z" stroke="white"/>
<path d="M27.777 9.47062C28.4561 8.97875 28.1081 7.90527 27.2697 7.90527H25.1662C24.3344 7.90527 23.9745 8.95866 24.6323 9.46766C24.8458 9.63288 24.9708 9.88765 24.9708 10.1576V11.5539V15.2026V22.4999V29.7972V33.4458V34.8421C24.9708 35.1121 24.8458 35.3669 24.6323 35.5321C23.9745 36.0411 24.3344 37.0945 25.1662 37.0945H27.2697C28.1081 37.0945 28.4561 36.021 27.777 35.5291C27.5524 35.3664 27.4195 35.106 27.4195 34.8287V33.4458V29.7972V22.4999V15.2026V11.5539V10.1711C27.4195 9.89377 27.5524 9.63329 27.777 9.47062Z" fill="white"/>
</svg>
