<svg width="292" height="45" viewBox="0 0 292 45" fill="none" xmlns="http://www.w3.org/2000/svg">
<path d="M65.672 36C64.776 36 64.328 35.552 64.328 34.656V15.648C64.328 14.752 64.776 14.304 65.672 14.304H73.16C75.112 14.304 76.6053 14.8267 77.64 15.872C78.6853 16.9067 79.208 18.4 79.208 20.352V21.312C79.208 23.264 78.6853 24.7627 77.64 25.808C76.6053 26.8427 75.112 27.36 73.16 27.36H67.016V34.656C67.016 35.552 66.568 36 65.672 36ZM67.016 24.672H73.16C74.376 24.672 75.24 24.416 75.752 23.904C76.264 23.392 76.52 22.528 76.52 21.312V20.352C76.52 19.1467 76.264 18.288 75.752 17.776C75.24 17.2533 74.376 16.992 73.16 16.992H67.016V24.672ZM88.945 36C87.153 36 85.8197 35.5627 84.945 34.688C84.0703 33.8133 83.633 32.48 83.633 30.688C83.633 28.896 84.065 27.5627 84.929 26.688C85.8037 25.8133 87.1423 25.376 88.945 25.376H95.713C95.649 24.256 95.3557 23.4933 94.833 23.088C94.3103 22.672 93.4143 22.464 92.145 22.464H90.289C89.2223 22.464 88.4277 22.5387 87.905 22.688C87.3823 22.8267 87.0143 23.0827 86.801 23.456C86.609 23.904 86.4117 24.2133 86.209 24.384C86.0063 24.5547 85.7023 24.64 85.297 24.64C84.849 24.64 84.497 24.5173 84.241 24.272C83.985 24.016 83.9103 23.68 84.017 23.264C84.337 22.0587 85.0037 21.1787 86.017 20.624C87.041 20.0587 88.465 19.776 90.289 19.776H92.145C94.2783 19.776 95.857 20.288 96.881 21.312C97.905 22.336 98.417 23.9147 98.417 26.048V34.656C98.417 35.552 97.969 36 97.073 36C96.177 36 95.729 35.552 95.729 34.656V33.936C94.5877 35.312 92.9237 36 90.737 36H88.945ZM88.945 33.312H90.737C91.5263 33.312 92.2677 33.2427 92.961 33.104C93.6543 32.9547 94.2463 32.688 94.737 32.304C95.2383 31.92 95.569 31.3707 95.729 30.656V28.064H88.945C87.889 28.064 87.185 28.24 86.833 28.592C86.4917 28.944 86.321 29.6427 86.321 30.688C86.321 31.744 86.4917 32.448 86.833 32.8C87.185 33.1413 87.889 33.312 88.945 33.312ZM106.11 36C105.214 36 104.766 35.552 104.766 34.656V21.12C104.766 20.224 105.214 19.776 106.11 19.776C107.006 19.776 107.454 20.224 107.454 21.12V22.368C108.083 21.5147 108.883 20.8693 109.854 20.432C110.835 19.9947 111.955 19.776 113.214 19.776C114.11 19.776 114.558 20.224 114.558 21.12C114.558 22.016 114.11 22.464 113.214 22.464C111.368 22.464 109.96 22.8053 108.99 23.488C108.019 24.1707 107.507 25.072 107.454 26.192V34.656C107.454 35.552 107.006 36 106.11 36ZM122.445 36C120.653 36 119.32 35.5627 118.445 34.688C117.57 33.8133 117.133 32.48 117.133 30.688C117.133 28.896 117.565 27.5627 118.429 26.688C119.304 25.8133 120.642 25.376 122.445 25.376H129.213C129.149 24.256 128.856 23.4933 128.333 23.088C127.81 22.672 126.914 22.464 125.645 22.464H123.789C122.722 22.464 121.928 22.5387 121.405 22.688C120.882 22.8267 120.514 23.0827 120.301 23.456C120.109 23.904 119.912 24.2133 119.709 24.384C119.506 24.5547 119.202 24.64 118.797 24.64C118.349 24.64 117.997 24.5173 117.741 24.272C117.485 24.016 117.41 23.68 117.517 23.264C117.837 22.0587 118.504 21.1787 119.517 20.624C120.541 20.0587 121.965 19.776 123.789 19.776H125.645C127.778 19.776 129.357 20.288 130.381 21.312C131.405 22.336 131.917 23.9147 131.917 26.048V34.656C131.917 35.552 131.469 36 130.573 36C129.677 36 129.229 35.552 129.229 34.656V33.936C128.088 35.312 126.424 36 124.237 36H122.445ZM122.445 33.312H124.237C125.026 33.312 125.768 33.2427 126.461 33.104C127.154 32.9547 127.746 32.688 128.237 32.304C128.738 31.92 129.069 31.3707 129.229 30.656V28.064H122.445C121.389 28.064 120.685 28.24 120.333 28.592C119.992 28.944 119.821 29.6427 119.821 30.688C119.821 31.744 119.992 32.448 120.333 32.8C120.685 33.1413 121.389 33.312 122.445 33.312ZM142.106 42.4C140.815 42.4 139.796 42.1387 139.049 41.616C138.314 41.0933 137.839 40.2987 137.626 39.232C137.551 38.784 137.631 38.432 137.866 38.176C138.1 37.92 138.458 37.792 138.938 37.792C139.343 37.792 139.636 37.8987 139.818 38.112C140.01 38.336 140.175 38.6667 140.314 39.104C140.442 39.3387 140.639 39.4987 140.906 39.584C141.183 39.6693 141.583 39.712 142.106 39.712H148.058C148.858 39.712 149.375 39.584 149.61 39.328C149.855 39.0827 149.978 38.5707 149.978 37.792V34.064C149.402 34.6933 148.687 35.1733 147.834 35.504C146.991 35.8347 146.042 36 144.986 36H143.77C141.647 36 140.068 35.488 139.034 34.464C138.01 33.44 137.498 31.872 137.498 29.76V26.048C137.498 23.904 138.004 22.3253 139.018 21.312C140.042 20.288 141.626 19.776 143.77 19.776H146.394C147.151 19.776 147.828 19.888 148.426 20.112C149.034 20.336 149.551 20.6773 149.978 21.136V21.12C149.978 20.224 150.426 19.776 151.322 19.776C152.218 19.776 152.666 20.224 152.666 21.12V37.792C152.666 39.36 152.287 40.5173 151.53 41.264C150.783 42.0213 149.626 42.4 148.058 42.4H142.106ZM143.77 33.312H144.986C146.394 33.312 147.578 33.136 148.538 32.784C149.498 32.432 149.978 31.872 149.978 31.104V24.704C149.978 23.84 149.663 23.2533 149.034 22.944C148.415 22.624 147.535 22.464 146.394 22.464H143.77C142.394 22.464 141.45 22.7093 140.938 23.2C140.436 23.6907 140.186 24.64 140.186 26.048V29.76C140.186 31.1147 140.436 32.048 140.938 32.56C141.439 33.0613 142.383 33.312 143.77 33.312ZM164.52 36C162.397 36 160.818 35.488 159.784 34.464C158.76 33.44 158.248 31.872 158.248 29.76V26.048C158.248 23.904 158.76 22.3253 159.784 21.312C160.818 20.288 162.397 19.776 164.52 19.776H167.144C169.277 19.776 170.856 20.288 171.88 21.312C172.904 22.336 173.416 23.9147 173.416 26.048V29.728C173.416 31.8507 172.904 33.4293 171.88 34.464C170.856 35.488 169.277 36 167.144 36H164.52ZM160.936 29.76C160.936 31.136 161.186 32.0747 161.688 32.576C162.189 33.0667 163.133 33.312 164.52 33.312H167.144C168.541 33.312 169.485 33.0613 169.976 32.56C170.477 32.0587 170.728 31.1147 170.728 29.728V26.048C170.728 24.6507 170.477 23.7067 169.976 23.216C169.485 22.7147 168.541 22.464 167.144 22.464H164.52C163.592 22.464 162.866 22.5707 162.344 22.784C161.832 22.9867 161.469 23.3493 161.256 23.872C161.042 24.384 160.936 25.1093 160.936 26.048V29.76ZM180.641 36C179.745 36 179.297 35.552 179.297 34.656V21.12C179.297 20.224 179.745 19.776 180.641 19.776C181.537 19.776 181.985 20.224 181.985 21.12V21.648C183.115 20.4 184.779 19.776 186.977 19.776H187.873C190.006 19.776 191.585 20.288 192.609 21.312C193.633 22.336 194.145 23.9147 194.145 26.048V34.656C194.145 35.552 193.697 36 192.801 36C191.905 36 191.457 35.552 191.457 34.656V26.048C191.457 24.6507 191.201 23.7067 190.689 23.216C190.187 22.7147 189.249 22.464 187.873 22.464H186.977C185.697 22.464 184.582 22.6133 183.633 22.912C182.683 23.2 182.134 23.6587 181.985 24.288V34.656C181.985 35.552 181.537 36 180.641 36Z" fill="black"/>
<path d="M211.891 36C211.539 36 211.224 35.8667 210.947 35.6C210.68 35.3227 210.547 35.008 210.547 34.656V15.648C210.547 15.296 210.68 14.9867 210.947 14.72C211.224 14.4427 211.539 14.304 211.891 14.304C212.243 14.304 212.552 14.4427 212.819 14.72C213.096 14.9867 213.235 15.296 213.235 15.648V23.68H226.291V15.648C226.291 15.296 226.424 14.9867 226.691 14.72C226.957 14.4427 227.272 14.304 227.635 14.304C227.987 14.304 228.296 14.4427 228.563 14.72C228.84 14.9867 228.979 15.296 228.979 15.648V34.656C228.979 35.008 228.84 35.3227 228.563 35.6C228.296 35.8667 227.987 36 227.635 36C227.272 36 226.957 35.8667 226.691 35.6C226.424 35.3227 226.291 35.008 226.291 34.656V26.368H213.235V34.656C213.235 35.008 213.096 35.3227 212.819 35.6C212.552 35.8667 212.243 36 211.891 36ZM248.825 19.776C249.721 19.776 250.169 20.224 250.169 21.12V34.656C250.169 35.552 249.721 36 248.825 36C247.929 36 247.481 35.552 247.481 34.656V34.128C246.35 35.376 244.686 36 242.489 36H241.593C239.47 36 237.891 35.488 236.857 34.464C235.833 33.4293 235.321 31.8507 235.321 29.728V21.12C235.321 20.224 235.769 19.776 236.665 19.776C237.561 19.776 238.009 20.224 238.009 21.12V29.728C238.009 31.1147 238.259 32.0587 238.761 32.56C239.273 33.0613 240.217 33.312 241.593 33.312H242.489C243.769 33.312 244.883 33.1627 245.833 32.864C246.793 32.5653 247.342 32.1067 247.481 31.488V21.12C247.481 20.224 247.929 19.776 248.825 19.776ZM258.172 36C257.276 36 256.828 35.552 256.828 34.656V14.816C256.828 13.92 257.276 13.472 258.172 13.472C259.068 13.472 259.516 13.92 259.516 14.816V21.488C260.071 20.9227 260.764 20.496 261.596 20.208C262.428 19.92 263.399 19.776 264.508 19.776H265.724C267.857 19.776 269.436 20.288 270.46 21.312C271.484 22.336 271.996 23.9147 271.996 26.048V29.728C271.996 31.8507 271.484 33.4293 270.46 34.464C269.436 35.488 267.857 36 265.724 36H264.508C263.399 36 262.428 35.856 261.596 35.568C260.764 35.28 260.071 34.8587 259.516 34.304V34.656C259.516 35.552 259.068 36 258.172 36ZM264.508 33.312H265.724C267.121 33.312 268.065 33.0613 268.556 32.56C269.057 32.048 269.308 31.104 269.308 29.728V26.048C269.308 24.6507 269.052 23.7067 268.54 23.216C268.039 22.7147 267.1 22.464 265.724 22.464H264.508C263.1 22.464 261.916 22.6453 260.956 23.008C259.996 23.36 259.516 23.9147 259.516 24.672V31.104C259.516 31.8507 259.996 32.4053 260.956 32.768C261.916 33.1307 263.1 33.312 264.508 33.312Z" fill="#0429E2"/>
<rect width="51.6892" height="45" rx="3" fill="#0429E2"/>
<path d="M45.7817 22.5278C45.7817 20.6076 45.4033 18.7062 44.6685 16.9321C43.9336 15.158 42.8564 13.5459 41.4985 12.188C40.1407 10.8301 38.5285 9.75294 36.7544 9.01807C34.9788 8.28264 32.4669 7.79346 30.5483 7.79346H29.8599L30.0728 8.44873L30.6587 10.2495V34.7886L30.0845 36.2144L29.8081 36.9009H30.5483C32.3979 36.9009 34.9382 36.7898 36.7544 36.0376C38.5285 35.3028 40.1407 34.2255 41.4985 32.8677C42.8564 31.5098 43.9336 29.8977 44.6685 28.1235C45.4033 26.3495 45.7817 24.4481 45.7817 22.5278Z" stroke="white"/>
<path d="M6.79718 22.167C6.79718 24.0872 7.17566 25.9886 7.91046 27.7627C8.64533 29.5368 9.72252 31.149 11.0804 32.5068C12.4382 33.8647 14.0504 34.9419 15.8245 35.6768C17.6001 36.4122 20.112 36.9014 22.0306 36.9014H22.7191L22.5062 36.2461L21.9202 34.4453V9.90625L22.4944 8.48047L22.7708 7.79395H22.0306C20.181 7.79395 17.6408 7.90504 15.8245 8.65723C14.0505 9.39207 12.4382 10.4694 11.0804 11.8271C9.72252 13.185 8.64533 14.7972 7.91046 16.5713C7.17562 18.3454 6.7972 20.2467 6.79718 22.167Z" stroke="white"/>
<path d="M27.777 9.47062C28.4561 8.97875 28.1081 7.90527 27.2697 7.90527H25.1662C24.3344 7.90527 23.9745 8.95866 24.6323 9.46766C24.8458 9.63288 24.9708 9.88765 24.9708 10.1576V11.5539V15.2026V22.4999V29.7972V33.4458V34.8421C24.9708 35.1121 24.8458 35.3669 24.6323 35.5321C23.9745 36.0411 24.3344 37.0945 25.1662 37.0945H27.2697C28.1081 37.0945 28.4561 36.021 27.777 35.5291C27.5524 35.3664 27.4195 35.106 27.4195 34.8287V33.4458V29.7972V22.4999V15.2026V11.5539V10.1711C27.4195 9.89377 27.5524 9.63329 27.777 9.47062Z" fill="white"/>
</svg>
